<svg width="40" height="40" viewBox="0 0 40 40" fill="none" xmlns="http://www.w3.org/2000/svg">
<g clip-path="url(#clip0_45_74)">
<path d="M18.5547 0.0855274C15.1094 0.546465 12.2032 2.61678 10.6719 5.68709C9.52348 7.97615 9.13285 11.2652 9.68754 13.8668C10.5547 17.898 13.8282 23.6949 18.3282 29.1793C19.1563 30.1949 19.336 30.3668 19.6641 30.4762C20.336 30.6949 20.6719 30.4371 22.1016 28.648C27.1563 22.2965 30.2344 16.3355 30.5313 12.3121C30.711 9.96053 30.25 7.57771 29.2422 5.60115C27.8204 2.8199 25.3047 0.913652 22.1485 0.226152C21.3282 0.0464649 19.3907 -0.0316601 18.5547 0.0855274ZM20.7813 7.15584C22.75 7.60115 23.9532 9.65584 23.3594 11.5699C23.0625 12.5465 22.4454 13.2652 21.4922 13.734C20.9219 14.0152 20.8907 14.023 20 14.023C19.1094 14.023 19.0782 14.0152 18.5079 13.734C16.2969 12.6402 15.7891 9.86678 17.4922 8.12459C17.9766 7.62459 18.5235 7.31209 19.2032 7.15584C19.7969 7.0074 20.1407 7.0074 20.7813 7.15584Z" fill="#047CFF"/>
<path d="M19.6563 9.45322C18.9766 9.66416 18.6485 10.4532 18.9688 11.0938C19.5078 12.1798 21.1719 11.7579 21.1719 10.5392C21.1719 9.83604 20.3438 9.24229 19.6563 9.45322Z" fill="#047CFF"/>
<path d="M7.59378 21.4139C7.45316 21.5077 7.27347 21.7108 7.19535 21.8671C6.90628 22.4296 2.25003 33.3671 2.28128 33.3983C2.29691 33.4139 4.92972 32.0936 8.14066 30.453L13.9688 27.4842L12.9297 25.9452C11.9688 24.5155 10.7891 22.6171 10.2735 21.6561L10.0547 21.2499H8.95316C7.96878 21.2499 7.82816 21.2733 7.59378 21.4139Z" fill="#047CFF"/>
<path d="M29.7265 21.6561C28.3672 24.1874 25.5156 28.3358 23.3281 30.9452C22.414 32.0389 22.0937 32.328 21.4531 32.6249C20.0859 33.2499 18.539 32.9452 17.4687 31.8514C17.1172 31.492 15.7109 29.7967 15.4219 29.3905C15.4062 29.367 13.4609 30.367 13.3594 30.4452C13.3437 30.4608 15.1172 32.2655 17.3047 34.4608C20 37.1483 21.3281 38.4295 21.414 38.4139C21.5234 38.3827 36.4844 30.6483 36.539 30.5936C36.5625 30.5702 32.9453 22.1327 32.7734 21.7967C32.7109 21.6795 32.539 21.4999 32.3984 21.4139C32.1562 21.2655 32.0078 21.2499 31.039 21.2499H29.9453L29.7265 21.6561Z" fill="#047CFF"/>
<path d="M5.89844 34.2266L0.742188 36.8672L0.375 37.7109C0.171875 38.1719 0 38.6719 0 38.8125C0 39.2109 0.273438 39.6641 0.625 39.8438C0.929688 40 1.0625 40 9.6875 40H18.4453L18.75 39.8203C18.9219 39.7266 19.0625 39.6328 19.0625 39.6094C19.0625 39.5859 17.2578 37.7734 15.0625 35.5781L11.0547 31.5859L5.89844 34.2266Z" fill="#047CFF"/>
<path d="M30.5312 36.3674L23.5938 39.9612L31.3281 39.9846C38.9531 40.0002 39.0703 40.0002 39.375 39.844C39.7266 39.6643 40 39.219 40 38.8205C40 38.6174 37.8906 33.5471 37.5469 32.9299C37.4688 32.7737 37.1172 32.9455 30.5312 36.3674Z" fill="#047CFF"/>
</g>
<defs>
<clipPath id="clip0_45_74">
<rect width="40" height="40" fill="white"/>
</clipPath>
</defs>
</svg>
