<svg width="40" height="40" viewBox="0 0 40 40" fill="none" xmlns="http://www.w3.org/2000/svg">
<g clip-path="url(#clip0_45_96)">
<path d="M2.69531 6.04688C2.03906 6.21094 1.54688 6.49219 1.04688 6.99219C0.539062 7.5 0.226562 8.05469 0.0859375 8.73438C-0.0390625 9.32812 -0.0390625 30.6875 0.0859375 31.2656C0.375 32.6016 1.46875 33.6953 2.79688 33.9766C3.38281 34.1016 36.6172 34.1016 37.2031 33.9766C38.5312 33.6953 39.6328 32.5859 39.9141 31.2656C40.0391 30.6719 40.0391 9.3125 39.9141 8.73438C39.625 7.39062 38.5391 6.30469 37.2031 6.02344C36.5703 5.89062 3.22656 5.91406 2.69531 6.04688ZM28.3984 15.8672C24.2266 20.0312 20.7266 23.5 20.6094 23.5625C20.3359 23.7031 19.6641 23.7031 19.3906 23.5625C19.2734 23.5 15.7734 20.0312 11.6016 15.8672L4.02344 8.28125H20H35.9766L28.3984 15.8672ZM7.39844 25.0547L2.34375 30.1172V20V9.88281L7.39844 14.9453L12.4609 20L7.39844 25.0547ZM37.6562 20.0156V30.1172L32.6016 25.0625L27.5391 20L32.5781 14.9609C35.3516 12.1875 37.625 9.92188 37.6328 9.92188C37.6484 9.92188 37.6562 14.4688 37.6562 20.0156ZM15.9297 23.5391C17.6094 25.2031 17.8281 25.3906 18.3906 25.6719L19.0156 25.9766H19.9922C20.9688 25.9766 20.9844 25.9766 21.5938 25.6797C22.1641 25.4062 22.3438 25.25 24.0781 23.5391L25.9453 21.6875L30.9609 26.7031L35.9766 31.7188H20H4.02344L9.02344 26.7188C11.7734 23.9688 14.0391 21.7188 14.0547 21.7188C14.0781 21.7188 14.9219 22.5391 15.9297 23.5391Z" fill="#047CFF"/>
</g>
<defs>
<clipPath id="clip0_45_96">
<rect width="40" height="40" fill="white"/>
</clipPath>
</defs>
</svg>
