<svg width="40" height="40" viewBox="0 0 40 40" fill="none" xmlns="http://www.w3.org/2000/svg">
<g clip-path="url(#clip0_45_108)">
<path d="M20.9765 0.117186C19.9531 0.476561 19.5859 2.01562 20.3515 2.70312C20.6562 2.97656 20.9922 3.09375 21.6797 3.16406C22.9609 3.30469 24.8203 3.70312 26.2109 4.13281C30.1875 5.38281 32.9218 7.67969 34.5078 11.0937C35.3984 13.0156 36.1328 15.9922 36.2812 18.25C36.375 19.7031 36.8125 20.25 37.8906 20.25C38.414 20.25 38.7812 20.1094 39.0547 19.8047C39.3828 19.4219 39.4531 19.0937 39.4531 17.8437C39.4531 14.5078 38.6797 11.6406 37.039 8.91406C34.2812 4.34375 29.8906 1.19531 24.9687 0.281248C23.5312 0.00781059 21.5156 -0.0703144 20.9765 0.117186Z" fill="#047CFF"/>
<path d="M6.90623 2.04684C5.60154 2.19528 3.75779 3.12497 2.62498 4.21091C1.92967 4.88278 1.53123 5.42184 1.17185 6.20309C0.671854 7.25778 0.585917 7.68747 0.593729 9.06247C0.593729 10.1172 0.624979 10.375 0.804667 11.039C1.30467 12.9062 3.34373 17.1172 5.17185 20.0703C10.2265 28.2265 17.6875 34.6562 26.9531 38.8515C28.9297 39.7422 29.9609 40.0468 30.8203 39.9687C33.4609 39.75 36.4531 37.5156 37.7344 34.8203C38.6875 32.8281 38.3984 31.2656 36.8203 29.8515C35.7344 28.8906 32.2344 26.3125 30.9922 25.5625C29.7578 24.8281 28.3828 24.5312 27.3672 24.7968C26.3047 25.0625 25.5547 25.6172 24.664 26.7812C23.8594 27.8359 23.5234 28.0468 22.6875 28.0468C22.1328 28.0468 21.6015 27.875 20.5859 27.3593C17.2265 25.6718 14.4453 22.914 12.9531 19.7968C12.2734 18.375 12.1328 17.414 12.4844 16.625C12.7031 16.1328 12.9844 15.8359 13.8281 15.1953C14.9765 14.3281 15.4375 13.7422 15.6719 12.8515C15.9609 11.7812 15.6562 10.7578 14.4453 8.69528C13.1875 6.56247 10.8984 3.76559 9.59373 2.75778C8.82029 2.16403 7.92967 1.92966 6.90623 2.04684Z" fill="#047CFF"/>
<path d="M22.0702 5.11713C22.0312 5.13276 21.8593 5.16401 21.6952 5.19526C20.8671 5.33588 20.3046 6.53901 20.664 7.39838C20.9218 8.00776 21.2656 8.20307 22.4687 8.42963C26.7499 9.24213 28.9452 10.6874 30.0781 13.4374C30.5156 14.4921 30.9296 16.2265 31.0546 17.4999C31.1249 18.2265 31.2499 18.5781 31.5234 18.8671C32.1015 19.4843 33.4218 19.3984 33.8906 18.7187C34.1562 18.3281 34.2187 18.0156 34.2187 17.0312C34.2109 14.5859 33.539 12.4687 32.1249 10.4296C31.5624 9.62495 29.9843 8.04682 29.1796 7.48432C27.9452 6.61713 26.3906 5.89838 25.0156 5.55463C24.5234 5.42963 22.3281 5.06245 22.1874 5.08588C22.164 5.08588 22.1171 5.10151 22.0702 5.11713Z" fill="#047CFF"/>
<path d="M22.2656 10.5159C21.5781 10.7581 21.1797 11.344 21.1719 12.094C21.1719 12.5862 21.3125 12.8909 21.6562 13.1487C21.9531 13.3674 22.1875 13.4534 23.125 13.6721C24.3438 13.9612 25.1016 14.5081 25.5469 15.4221C25.7734 15.8987 25.8281 16.0862 26.0547 17.1956C26.1953 17.8674 26.5 18.3206 26.9844 18.5471C27.7578 18.9143 28.7188 18.5002 29.0391 17.6643C29.2266 17.1799 29.2266 15.9221 29.0312 15.2737C28.4219 13.2034 26.6484 11.3284 24.6328 10.6174C24.0078 10.3987 22.7422 10.344 22.2656 10.5159Z" fill="#047CFF"/>
</g>
<defs>
<clipPath id="clip0_45_108">
<rect width="40" height="40" fill="white"/>
</clipPath>
</defs>
</svg>
