<svg width="70" height="60" viewBox="0 0 70 60" fill="none" xmlns="http://www.w3.org/2000/svg">
<path d="M34.5071 12.6584C16.2 19.6069 1.05355 25.3973 0.875677 25.5185C0.424156 25.8148 0 26.5016 0 26.9729C0 27.5385 0.328379 28.2118 0.766217 28.508C0.985137 28.6561 4.76149 30.097 9.16724 31.713C13.573 33.3154 17.2399 34.7024 17.322 34.7967C17.4041 34.8775 18.8407 39.3079 20.51 44.6405C22.1929 49.973 23.657 54.5381 23.7801 54.7939C23.8896 55.0363 24.1769 55.3595 24.4095 55.4942C24.8884 55.777 25.8598 55.8308 26.3114 55.5884C26.4755 55.5076 28.569 53.8513 30.9908 51.9122C36.2448 47.6838 36.0806 47.8185 36.7921 47.6569C37.9141 47.4145 38.133 47.5357 44.7553 52.2623C56.358 60.5574 55.5234 59.9919 56.2486 59.9919C57.0148 59.9919 57.5484 59.6552 57.9178 58.9684C58.2736 58.2817 70.0952 2.08744 69.9994 1.53533C69.8352 0.71389 68.9596 -0.013279 68.1112 0.00018692C67.9334 0.00018692 52.8143 5.69637 34.5071 12.6584ZM54.8393 12.5506C54.935 12.6449 55.0035 12.8065 55.0035 12.9277C55.0035 13.0489 49.9683 17.7486 43.8249 23.3774C28.87 37.0455 28.2679 37.6111 27.8712 38.271C27.3512 39.1597 27.146 40.0485 26.6671 43.5632C26.4208 45.408 26.1608 46.9297 26.0514 47.0913C25.8461 47.4145 25.2852 47.5087 24.9294 47.2798C24.82 47.2125 23.9306 44.4115 22.9455 41.0585C21.0573 34.5678 20.9478 33.9887 21.3994 32.9653C21.5225 32.6825 21.8235 32.2785 22.0698 32.0496C22.6171 31.5379 54.1688 12.389 54.4698 12.389C54.5793 12.389 54.7435 12.4564 54.8393 12.5506Z" fill="#047CFF"/>
</svg>
