<svg width="60" height="60" viewBox="0 0 60 60" fill="none" xmlns="http://www.w3.org/2000/svg">
<path d="M6.69517 0.0844193C3.42156 0.63615 0.60554 3.51219 0.101004 6.83432C0.0188702 7.38604 -0.01633 14.899 0.00713684 30.5352L0.042337 53.4262L0.370872 54.3653C1.29781 56.9831 3.05782 58.7439 5.67437 59.6713L6.61304 60H30.0212H53.4293L54.368 59.6713C57.0784 58.7087 58.944 56.7601 59.7888 54.0131C59.9883 53.344 60 52.2758 60 29.9483V6.5878L59.6715 5.64868C58.7445 3.0309 56.9845 1.27005 54.368 0.342678L53.4293 0.0139885L30.3732 0.00224686C17.3608 -0.00949097 7.04718 0.0257263 6.69517 0.0844193ZM31.2766 19.3246C32.4148 19.4772 32.802 19.6885 33.0953 20.3341C33.3065 20.8271 33.3183 21.0854 33.2948 24.6423C33.2596 28.0701 33.2831 28.4692 33.4708 28.9153C33.858 29.8426 34.3039 29.7487 35.3716 28.5044C36.8852 26.7318 38.3636 24.2666 39.3492 21.8484C39.6074 21.2145 39.9124 20.6628 40.1236 20.4632L40.4756 20.1345L44.3476 20.1698L48.2314 20.205L48.5247 20.5454C48.8885 20.9797 48.8415 21.4493 48.2783 22.6702C47.7973 23.7032 47.1285 24.7127 44.993 27.6005C43.1274 30.1244 42.6932 30.8405 42.6932 31.3922C42.6932 31.7444 42.9162 32.0144 44.7818 33.9278C48.7946 38.0482 49.569 39.5742 48.1023 40.4899C47.6917 40.7364 47.5978 40.7481 44.3946 40.7364C40.018 40.7247 40.3348 40.842 37.8239 38.2829C36.7913 37.2382 35.7353 36.2404 35.4889 36.0643C34.9257 35.6886 34.4799 35.6769 34.1513 36.0291C33.8228 36.3695 33.7172 36.7451 33.4239 38.4356C33.154 39.9734 33.0836 40.1494 32.5673 40.4194C32.2505 40.5955 31.8985 40.6307 30.3145 40.619C27.0996 40.619 24.8937 39.9381 22.4649 38.2008C20.0478 36.4869 17.7011 33.5874 15.1784 29.1853C13.5709 26.3914 11.2477 21.5315 11.2477 20.968C11.2477 20.7919 11.3533 20.5219 11.4707 20.3693L11.6936 20.0876L14.932 20.1111C19.0622 20.1345 18.9096 20.0641 19.8835 22.3767C20.9161 24.7949 23.1219 28.3518 24.1075 29.1618C24.6942 29.6548 24.9523 29.69 25.2691 29.3731C25.7267 28.9153 25.8558 27.9762 25.8441 25.194C25.8323 22.9284 25.8089 22.6115 25.5977 22.1302C25.3278 21.5197 24.8937 21.1676 24.1779 20.9797C23.779 20.8624 23.6851 20.7919 23.6851 20.5689C23.6851 20.0758 24.5065 19.4772 25.4334 19.3246C26.2078 19.1954 30.2793 19.1954 31.2766 19.3246Z" fill="#047CFF"/>
</svg>
