<svg width="60" height="60" viewBox="0 0 60 60" fill="none" xmlns="http://www.w3.org/2000/svg">
<path d="M28.3319 0.034729C24.9532 0.386501 22.3722 0.984512 19.7091 2.03983C15.9902 3.50554 12.9635 5.46373 10.054 8.28963C4.48148 13.6717 1.41953 20.4609 1.10277 28.1764C0.891604 33.1599 2.14689 38.5771 4.52841 42.9625C4.80997 43.4785 5.0446 43.9827 5.0446 44.0765C5.0446 44.1586 3.90663 47.5707 2.5223 51.6513C1.13797 55.7436 0 59.1792 0 59.2847C0 59.531 0.469265 60 0.727361 60C0.821214 60 4.38763 58.8978 8.65794 57.5376C12.9165 56.1891 16.4829 55.0752 16.5768 55.0752C16.6706 55.0752 17.3394 55.3566 18.0784 55.7084C20.4834 56.8575 23.475 57.7487 26.3962 58.206C28.2967 58.4991 32.8251 58.4991 34.7256 58.206C41.1663 57.2093 46.9383 54.3248 51.4432 49.8573C54.2119 47.1134 56.4291 43.7833 57.8839 40.2422C58.7989 37.9791 59.3973 35.7512 59.8548 32.855C60.0425 31.5769 60.0542 27.0625 59.8548 25.6437C58.8693 18.62 55.7253 12.5461 50.6689 7.85578C46.2461 3.7635 40.8847 1.2073 34.7256 0.257519C33.5407 0.0816307 29.3408 -0.0708008 28.3319 0.034729ZM34.2212 6.35489C41.1194 7.50401 47.079 11.5377 50.6689 17.4709C52.1588 19.945 53.3437 23.322 53.7426 26.23C53.9303 27.6136 53.9303 30.8733 53.7426 32.2101C53.4376 34.4614 52.4991 37.4984 51.5019 39.48C49.2142 44.053 45.0964 48.0398 40.5211 50.1621C37.4591 51.5692 34.7374 52.2141 31.3821 52.3431C26.7716 52.5073 22.4543 51.4051 18.5477 49.0599C17.9729 48.7199 17.4332 48.4854 17.2572 48.4854C17.093 48.4971 15.2394 49.0482 13.1394 49.7166C11.0395 50.3849 9.31492 50.9243 9.29145 50.9126C9.27972 50.9009 9.81938 49.2475 10.4998 47.2307C11.1802 45.2139 11.7316 43.4316 11.7316 43.2557C11.7316 43.0681 11.4149 42.4701 10.9573 41.7665C8.82219 38.5302 7.54344 34.7076 7.28534 30.7209C7.16803 29.0676 7.26188 26.828 7.50824 25.4678C8.83392 18.022 13.4679 11.8542 20.2371 8.48896C22.7594 7.23431 25.2934 6.51905 28.6252 6.1321C29.4816 6.02657 33.1888 6.179 34.2212 6.35489Z" fill="#047CFF"/>
<path d="M21.4101 15.6181C19.5917 15.8995 18.7705 16.2396 17.9141 17.0721C15.8141 19.0772 15.2158 23.0522 16.4946 26.441C17.7029 29.6655 21.7738 34.9655 25.1525 37.7094C28.4374 40.3828 32.1915 42.1534 36.4853 43.0563C37.6232 43.3025 39.7232 43.3025 40.6383 43.0563C42.3863 42.599 44.498 41.0864 45.1784 39.7965C45.8002 38.624 46.0817 36.1264 45.6829 35.3642C45.5304 35.0711 45.0494 34.7897 42.7852 33.6874C41.2835 32.9487 39.7115 32.2217 39.2774 32.0458C37.8461 31.483 37.4825 31.6237 36.2272 33.195C34.7138 35.0711 34.444 35.3759 34.3149 35.3759C34.2563 35.3759 33.787 35.1883 33.2825 34.9773C31.3703 34.133 28.6837 32.0693 26.7715 29.9469C25.9503 29.0441 24.6363 27.3087 24.6363 27.1445C24.6363 27.0859 25 26.6168 25.4341 26.1126C26.5486 24.8345 26.924 24.1193 26.9005 23.2985C26.9005 22.7591 26.7011 22.1963 25.6452 19.7221C24.9531 18.104 24.2492 16.5914 24.0849 16.3451C23.5453 15.5595 22.8883 15.3836 21.4101 15.6181Z" fill="#047CFF"/>
</svg>
